HIERARCHY
ROOT Hips
{
	OFFSET 0.00000 0.00000 0.00000
	CHANNELS 6 Xposition Yposition Zposition Zrotation Yrotation Xrotation 
	JOINT LHipJoint
	{
		OFFSET 0 0 0
		CHANNELS 3 Zrotation Yrotation Xrotation
		JOINT LeftUpLeg
		{
			OFFSET 1.57338 -1.94743 0.52196
			CHANNELS 3 Zrotation Yrotation Xrotation
			JOINT LeftLeg
			{
				OFFSET 2.60333 -7.15259 0.00000
				CHANNELS 3 Zrotation Yrotation Xrotation
				JOINT LeftFoot
				{
					OFFSET 2.77855 -7.63400 0.00000
					CHANNELS 3 Zrotation Yrotation Xrotation
					JOINT LeftToeBase
					{
						OFFSET 0.19847 -0.54529 2.28466
						CHANNELS 3 Zrotation Yrotation Xrotation
						End Site
						{
							OFFSET 0.00000 -0.00000 1.17993
						}
					}
				}
			}
		}
	}
	JOINT RHipJoint
	{
		OFFSET 0 0 0
		CHANNELS 3 Zrotation Yrotation Xrotation
		JOINT RightUpLeg
		{
			OFFSET -1.61527 -1.94743 0.52196
			CHANNELS 3 Zrotation Yrotation Xrotation
			JOINT RightLeg
			{
				OFFSET -2.53829 -6.97390 0.00000
				CHANNELS 3 Zrotation Yrotation Xrotation
				JOINT RightFoot
				{
					OFFSET -2.80762 -7.71387 0.00000
					CHANNELS 3 Zrotation Yrotation Xrotation
					JOINT RightToeBase
					{
						OFFSET -0.30536 -0.83898 2.28801
						CHANNELS 3 Zrotation Yrotation Xrotation
						End Site
						{
							OFFSET -0.00000 -0.00000 1.21323
						}
					}
				}
			}
		}
	}
	JOINT LowerBack
	{
		OFFSET 0 0 0
		CHANNELS 3 Zrotation Yrotation Xrotation
		JOINT Spine
		{
			OFFSET -0.04381 1.99497 -0.19778
			CHANNELS 3 Zrotation Yrotation Xrotation
			JOINT Spine1
			{
				OFFSET -0.01959 2.01295 -0.04372
				CHANNELS 3 Zrotation Yrotation Xrotation
				JOINT Neck
				{
					OFFSET 0 0 0
					CHANNELS 3 Zrotation Yrotation Xrotation
					JOINT Neck1
					{
						OFFSET -0.05459 1.76913 0.09708
						CHANNELS 3 Zrotation Yrotation Xrotation
						JOINT Head
						{
							OFFSET 0.09461 1.77368 -0.11172
							CHANNELS 3 Zrotation Yrotation Xrotation
							End Site
							{
								OFFSET 0.03812 1.78157 -0.04834
							}
						}
					}
				}
				JOINT LeftShoulder
				{
					OFFSET 0 0 0
					CHANNELS 3 Zrotation Yrotation Xrotation
					JOINT LeftArm
					{
						OFFSET 3.50922 1.24034 -0.28866
						CHANNELS 3 Zrotation Yrotation Xrotation
						JOINT LeftForeArm
						{
							OFFSET 5.40188 -0.00000 0.00000
							CHANNELS 3 Zrotation Yrotation Xrotation
							JOINT LeftHand
							{
								OFFSET 3.68559 -0.00000 0.00000
								CHANNELS 3 Zrotation Yrotation Xrotation
								JOINT LeftFingerBase
								{
									OFFSET 0 0 0
									CHANNELS 3 Zrotation Yrotation Xrotation
									JOINT LeftHandIndex1
									{
										OFFSET 0.61753 -0.00000 0.00000
										CHANNELS 3 Zrotation Yrotation Xrotation
										End Site
										{
											OFFSET 0.49787 -0.00000 0.00000
										}
									}
								}
								JOINT LThumb
								{
									OFFSET 0 0 0
									CHANNELS 3 Zrotation Yrotation Xrotation
									End Site
									{
										OFFSET 0.50547 -0.00000 0.50547
									}
								}
							}
						}
					}
				}
				JOINT RightShoulder
				{
					OFFSET 0 0 0
					CHANNELS 3 Zrotation Yrotation Xrotation
					JOINT RightArm
					{
						OFFSET -2.95373 1.39649 -0.27346
						CHANNELS 3 Zrotation Yrotation Xrotation
						JOINT RightForeArm
						{
							OFFSET -6.10670 -0.00000 -0.00000
							CHANNELS 3 Zrotation Yrotation Xrotation
							JOINT RightHand
							{
								OFFSET -3.63052 -0.00000 0.00000
								CHANNELS 3 Zrotation Yrotation Xrotation
								JOINT RightFingerBase
								{
									OFFSET 0 0 0
									CHANNELS 3 Zrotation Yrotation Xrotation
									JOINT RightHandIndex1
									{
										OFFSET -0.58385 -0.00000 0.00000
										CHANNELS 3 Zrotation Yrotation Xrotation
										End Site
										{
											OFFSET -0.47071 -0.00000 0.00000
										}
									}
								}
								JOINT RThumb
								{
									OFFSET 0 0 0
									CHANNELS 3 Zrotation Yrotation Xrotation
									End Site
									{
										OFFSET -0.47790 -0.00000 0.47790
									}
								}
							}
						}
					}
				}
			}
		}
	}
}
MOTION
Frames: 17
Frame Time: 0.033333
6.90 17.67 -2.01 726.34 -75.72 -722.52 0.00 0.00 0.00 -8.44 -11.06 -7.44 7.17 15.47 49.50 -0.50 -15.07 -3.52 2.79 -10.34 -30.09 0.00 0.00 0.00 -5.22 22.21 -33.26 -9.35 -17.03 57.29 0.06 -5.04 -4.59 -0.48 4.44 -12.31 -4.09 1.34 15.32 0.15 0.92 6.32 2.32 0.28 -1.96 -2.80 5.40 0.67 1.81 7.04 8.17 1.16 3.42 2.29 0.00 -0.00 0.00 -79.17 -47.77 39.49 147.31 -43.09 -106.79 -0.00 0.00 -2.35 42.11 18.52 16.02 -7.12 0.00 -0.00 14.93 53.66 3.24 0.00 -0.00 0.00 82.78 53.36 49.35 -145.94 44.13 -105.84 0.00 -0.00 -4.35 -57.67 2.12 -3.34 7.12 -0.00 -0.00 -23.03 -25.81 -11.62
6.80 17.08 -1.98 731.03 -76.57 -727.53 0.00 0.00 0.00 -11.99 -11.14 0.06 5.64 14.07 43.52 1.03 -15.14 -19.68 1.98 -8.83 -25.28 0.00 0.00 0.00 -7.50 20.61 -34.15 -10.18 -17.51 60.09 -0.19 2.16 -7.78 -1.07 6.59 -18.50 -4.60 0.29 13.85 0.26 -0.41 5.12 2.94 -0.32 -2.33 -3.14 6.00 0.42 2.05 7.84 8.33 1.32 3.82 2.35 -0.00 -0.00 0.00 -77.17 -45.55 37.22 149.33 -41.46 -108.15 -0.00 0.00 -1.25 42.06 18.35 15.86 -7.12 0.00 -0.00 14.85 53.44 3.14 -0.00 -0.00 0.00 82.37 48.52 52.14 -147.54 42.91 -106.95 0.00 -0.00 -2.79 -56.99 3.01 -4.62 7.12 -0.00 -0.00 -22.24 -24.39 -11.96
6.67 16.86 -2.12 732.56 -76.57 -729.70 0.00 0.00 0.00 -12.39 -8.52 -0.50 6.17 14.59 45.67 2.02 -9.20 -25.52 3.14 -10.92 -31.99 0.00 0.00 0.00 -6.57 18.77 -32.63 -10.19 -17.52 60.13 -0.56 5.04 -13.28 -1.13 6.74 -18.95 -5.72 -0.51 13.32 0.78 -1.55 4.97 4.28 -0.90 -2.05 -3.34 6.45 0.18 2.21 8.48 6.91 1.37 4.16 1.89 0.00 -0.00 0.00 -75.94 -44.47 35.35 150.77 -40.23 -109.09 -0.00 -0.00 3.26 41.61 15.47 13.33 -7.12 0.00 -0.00 14.00 49.77 1.68 0.00 -0.00 0.00 81.15 42.90 54.95 -149.60 41.24 -108.33 0.00 0.00 1.03 -57.21 3.74 -5.78 7.12 -0.00 -0.00 -22.11 -23.12 -12.59
6.46 17.00 -2.15 724.24 -78.07 -722.28 0.00 0.00 0.00 -9.39 -7.79 -2.04 7.31 15.59 50.03 1.03 -10.33 -18.49 2.98 -10.67 -31.18 0.00 0.00 0.00 -2.78 18.19 -27.55 -8.41 -16.41 54.03 -0.70 7.34 -14.99 -0.74 5.51 -15.37 -2.19 -0.94 12.77 1.09 -1.65 4.85 2.61 -0.92 -1.98 -3.24 6.38 0.32 2.83 8.32 7.95 1.57 4.08 2.19 -0.00 0.00 0.00 -76.62 -37.45 36.15 152.19 -38.94 -110.00 -0.00 -0.00 8.03 46.20 16.40 16.41 -7.12 0.00 -0.00 19.21 51.99 3.41 -0.00 0.00 0.00 79.65 31.81 57.73 -149.85 41.02 -108.49 0.00 0.00 6.41 -58.80 5.81 -9.49 7.12 -0.00 -0.00 -22.37 -19.21 -14.94
6.24 17.43 -2.06 729.61 -82.76 -727.66 0.00 0.00 0.00 -9.85 -7.90 -3.37 7.85 16.01 52.03 -0.15 -9.77 -3.88 3.07 -10.81 -31.64 0.00 0.00 0.00 -2.97 18.09 -24.04 -6.25 -14.67 45.98 -0.13 10.59 -9.38 -0.07 1.75 -4.82 -1.06 -0.30 11.96 1.49 -0.64 4.31 2.23 -0.40 -2.17 -3.71 6.60 1.17 2.06 8.54 10.93 1.47 4.08 3.04 -0.00 -0.00 0.00 -79.64 -25.18 37.47 152.03 -39.09 -109.90 -0.00 -0.00 12.10 43.58 13.41 12.44 -7.12 0.00 -0.00 15.74 47.55 1.02 -0.00 -0.00 0.00 76.66 18.51 61.01 -145.88 44.18 -105.80 0.00 0.00 5.76 -56.06 6.20 -9.12 7.12 -0.00 -0.00 -20.53 -19.26 -13.50
5.99 17.97 -1.88 811.49 -86.08 -809.67 0.00 0.00 0.00 -13.35 -5.33 -4.69 7.45 15.70 50.57 0.23 -6.89 14.17 1.22 -7.00 -19.72 0.00 0.00 0.00 -6.01 18.41 -21.57 -4.29 -12.54 37.66 0.14 9.81 -4.16 -0.20 2.86 -7.88 -1.59 0.88 11.67 0.98 0.85 4.30 1.80 0.34 -2.09 -3.28 7.26 0.66 0.10 9.58 13.59 0.90 4.45 4.18 0.00 0.00 0.00 -82.10 -12.46 37.46 151.10 -39.93 -109.31 -0.00 -0.00 7.62 38.41 12.34 9.62 -7.12 0.00 -0.00 10.49 45.31 0.08 0.00 0.00 0.00 74.39 7.91 62.84 -136.63 49.95 -99.01 0.00 0.00 0.04 -52.75 5.59 -7.30 7.12 -0.00 -0.00 -18.58 -20.96 -11.31
5.76 18.41 -1.78 868.27 -83.20 -865.08 0.00 0.00 0.00 -12.18 -2.46 -9.33 7.66 15.87 51.34 0.22 -10.81 18.28 0.72 -5.42 -15.12 0.00 0.00 0.00 -5.37 21.47 -19.27 -3.44 -11.37 33.55 -0.62 -0.09 -14.94 -0.76 5.58 -15.58 0.34 1.27 9.93 0.87 1.58 4.12 0.54 0.72 -1.30 -0.91 7.77 -1.41 -2.04 10.55 16.28 0.02 4.84 5.20 -0.00 -0.00 0.00 -83.67 -0.07 37.89 150.18 -40.74 -108.71 -0.00 -0.00 0.44 33.82 11.35 7.51 -7.12 0.00 -0.00 6.12 43.48 -0.23 -0.00 -0.00 0.00 72.15 2.26 63.87 -123.89 55.18 -88.87 0.00 -0.00 -6.47 -51.02 4.74 -5.83 7.12 -0.00 -0.00 -17.66 -22.55 -10.01
5.59 18.56 -1.77 874.38 -79.94 -871.70 0.00 0.00 0.00 -11.45 -0.14 -13.41 8.45 16.44 54.17 0.14 -5.71 11.37 1.06 -6.53 -18.34 0.00 0.00 0.00 -4.17 19.93 -16.77 -4.11 -12.30 36.82 -0.64 -9.49 -21.44 -0.39 4.03 -11.16 0.91 1.15 9.95 -0.23 1.44 4.42 -0.90 0.66 -0.96 2.28 8.21 -2.85 -2.80 11.08 16.57 -0.59 5.23 5.76 -0.00 -0.00 0.00 -82.97 10.80 38.03 149.55 -41.28 -108.30 -0.00 0.00 -8.16 32.27 11.96 7.46 -7.12 0.00 -0.00 4.68 44.00 -0.12 -0.00 -0.00 0.00 74.39 0.71 62.93 -114.27 57.65 -80.85 0.00 -0.00 -8.46 -47.38 3.75 -4.06 7.12 -0.00 -0.00 -15.36 -24.45 -7.90
5.51 18.48 -1.82 873.15 -78.59 -870.79 0.00 0.00 0.00 -9.91 -0.93 -18.92 9.54 17.15 57.96 0.01 -3.27 5.18 1.00 -6.36 -17.84 0.00 0.00 0.00 -3.53 17.37 -14.67 -5.49 -13.91 42.89 -0.18 -4.62 -10.98 -0.81 5.73 -16.01 -1.46 1.16 10.02 0.55 1.23 4.72 1.26 0.51 -0.76 1.60 8.34 -4.01 -1.53 11.14 15.45 -0.07 5.33 5.50 0.00 -0.00 0.00 -86.29 17.94 36.61 147.43 -42.99 -106.87 -0.00 0.00 -10.94 29.32 10.77 5.99 -7.12 0.00 -0.00 2.02 42.28 -0.14 0.00 -0.00 0.00 73.27 2.54 62.56 -112.02 58.09 -78.95 0.00 -0.00 -6.51 -48.68 4.38 -4.97 7.12 -0.00 -0.00 -16.13 -23.39 -8.74
5.40 18.25 -1.88 879.82 -78.91 -877.31 0.00 0.00 0.00 -5.69 -3.92 -24.18 10.31 17.58 60.50 -0.02 -2.71 0.07 0.77 -5.62 -15.69 0.00 0.00 0.00 0.40 17.70 -9.26 -6.15 -14.57 45.57 -0.33 -2.15 -11.88 -1.70 8.21 -23.36 -0.79 1.15 9.93 1.28 1.29 4.52 1.64 0.55 -0.92 2.27 7.95 -4.90 -0.86 10.47 14.75 0.01 5.10 5.42 0.00 -0.00 0.00 -87.43 21.51 33.83 145.12 -44.73 -105.27 -0.00 0.00 -13.72 28.88 12.73 6.93 -7.12 0.00 -0.00 1.47 44.45 -0.02 0.00 -0.00 0.00 73.77 5.35 61.35 -116.18 57.24 -82.47 0.00 -0.00 -6.69 -44.17 6.56 -6.33 7.12 -0.00 -0.00 -12.52 -20.96 -7.39
5.30 17.93 -1.93 884.49 -79.38 -882.54 0.00 0.00 0.00 -1.85 -7.69 -27.71 10.22 17.53 60.23 0.02 -2.66 -3.12 0.78 -5.62 -15.69 0.00 0.00 0.00 4.10 18.38 -1.99 -5.21 -13.61 41.70 -1.15 -4.73 -22.45 -2.22 9.32 -26.79 0.00 1.33 11.11 1.66 1.63 4.01 1.52 0.73 -2.10 2.39 7.30 -4.57 0.74 9.37 13.61 0.36 4.69 4.92 -0.00 -0.00 0.00 -86.26 20.97 31.61 142.70 -46.39 -103.54 -0.00 0.00 -17.76 30.42 13.65 7.89 -7.12 0.00 -0.00 2.84 45.69 0.05 -0.00 -0.00 0.00 75.07 9.04 59.84 -120.97 56.04 -86.47 0.00 -0.00 -6.00 -43.63 6.57 -6.23 7.12 -0.00 -0.00 -12.14 -21.01 -7.14
5.18 17.57 -1.88 892.73 -79.47 -891.78 0.00 0.00 0.00 1.87 -12.51 -29.56 9.41 17.07 57.51 0.06 -3.70 -4.81 0.69 -5.31 -14.80 0.00 0.00 0.00 5.93 16.68 1.12 -4.62 -12.94 39.15 -1.82 -4.52 -27.43 -2.12 9.11 -26.15 1.97 1.61 12.05 2.27 2.23 4.16 0.94 1.01 -2.41 2.61 6.77 -4.45 1.22 8.60 12.19 0.44 4.35 4.93 0.00 -0.00 0.00 -84.70 16.77 29.50 141.77 -46.99 -102.86 -0.00 0.00 -18.13 29.87 14.40 8.13 -7.12 0.00 -0.00 2.26 46.46 0.08 0.00 -0.00 0.00 75.59 15.09 58.08 -123.70 55.24 -88.72 0.00 -0.00 -7.24 -44.12 6.55 -6.31 7.12 -0.00 -0.00 -12.49 -20.98 -7.36
5.06 17.25 -1.71 899.58 -76.81 -899.32 0.00 0.00 0.00 4.09 -15.82 -28.91 7.61 15.82 51.13 0.01 -4.13 -3.36 0.91 -6.08 -17.01 0.00 0.00 0.00 5.68 16.47 -0.82 -5.31 -13.73 42.16 -2.08 -2.56 -28.30 -2.08 9.03 -25.90 2.27 2.40 12.97 3.44 3.33 4.25 1.81 1.53 -2.87 2.34 6.78 -4.59 0.96 8.68 12.10 0.41 4.37 4.93 -0.00 -0.00 0.00 -84.46 11.60 27.14 143.34 -45.96 -104.01 -0.00 0.00 -16.06 30.49 14.05 8.13 -7.12 0.00 -0.00 2.88 46.15 0.08 -0.00 -0.00 0.00 74.96 22.73 57.75 -121.78 55.82 -87.14 0.00 -0.00 -8.81 -43.04 5.16 -4.80 7.12 -0.00 -0.00 -11.99 -22.97 -6.50
4.79 17.06 -1.43 887.45 -71.98 -890.30 0.00 0.00 0.00 -2.41 -15.45 -22.55 6.08 14.51 45.32 0.32 2.66 -11.93 1.50 -7.74 -21.93 0.00 0.00 0.00 -0.74 17.52 -1.95 -6.40 -14.81 46.59 -1.86 0.90 -25.54 -2.44 9.72 -28.09 -0.09 3.28 14.19 1.54 4.11 4.81 0.99 1.91 -2.98 3.43 7.20 -4.50 1.91 8.97 13.38 0.52 4.61 4.83 0.00 -0.00 0.00 -80.40 6.83 24.32 146.20 -43.94 -106.02 -0.00 0.00 -17.40 31.09 13.54 8.03 -7.12 0.00 -0.00 3.48 45.65 0.06 0.00 -0.00 0.00 78.07 29.12 59.50 -117.07 57.04 -83.21 0.00 -0.00 -9.53 -42.24 3.70 -3.35 7.12 -0.00 -0.00 -11.66 -24.98 -5.76
4.45 17.06 -1.07 889.89 -68.97 -894.43 0.00 0.00 0.00 -4.61 -10.37 -19.52 6.12 14.54 45.45 0.52 3.92 -15.59 2.09 -9.05 -25.95 0.00 0.00 0.00 -2.39 18.59 -2.49 -6.93 -15.27 48.61 -1.16 1.86 -19.82 -2.79 10.35 -30.10 0.22 3.29 14.04 2.27 4.19 4.68 1.57 1.95 -3.08 2.46 7.58 -4.78 2.55 9.40 15.67 0.96 4.80 5.51 -0.00 -0.00 0.00 -77.99 2.12 21.93 148.60 -42.06 -107.66 -0.00 0.00 -18.11 31.94 13.30 8.16 -7.12 0.00 -0.00 4.31 45.50 0.05 -0.00 -0.00 0.00 80.11 32.10 62.33 -119.31 56.49 -85.09 0.00 -0.00 -9.88 -39.80 3.68 -3.06 7.12 -0.00 -0.00 -9.87 -25.19 -4.80
4.16 17.24 -0.75 890.72 -67.96 -895.96 0.00 0.00 0.00 -4.97 -6.50 -20.19 6.49 14.89 46.92 0.37 -0.30 -11.45 2.11 -9.09 -26.08 0.00 0.00 0.00 -4.20 17.01 -5.37 -7.59 -15.81 51.08 -0.43 -0.34 -12.53 -1.76 8.35 -23.78 0.44 2.92 14.17 2.56 3.77 4.25 1.80 1.75 -3.59 2.29 7.77 -6.40 1.96 9.71 17.37 0.95 4.90 6.35 0.00 -0.00 0.00 -73.98 -3.23 19.66 150.30 -40.64 -108.79 -0.00 0.00 -17.55 33.30 13.37 8.64 -7.12 0.00 -0.00 5.61 45.78 0.11 0.00 -0.00 0.00 81.64 34.19 63.96 -125.62 54.62 -90.29 0.00 -0.00 -9.31 -42.89 5.99 -5.54 7.12 -0.00 -0.00 -11.73 -21.89 -6.65
3.95 17.46 -0.54 888.53 -66.64 -894.46 0.00 0.00 0.00 -5.16 -2.02 -22.60 7.14 15.45 49.41 -0.05 -5.40 -1.83 1.91 -8.68 -24.78 0.00 0.00 0.00 -5.81 14.61 -9.52 -8.56 -16.52 54.55 -0.14 -4.72 -10.43 -0.83 5.83 -16.29 -1.17 3.12 14.16 2.15 3.80 4.24 2.27 1.77 -3.68 1.96 7.87 -7.73 1.39 10.02 16.80 0.89 5.00 6.40 0.00 0.00 0.00 -69.86 -8.78 18.24 151.65 -39.43 -109.66 -0.00 0.00 -18.70 34.72 13.86 9.42 -7.12 0.00 -0.00 6.96 46.56 0.27 0.00 0.00 0.00 82.96 36.52 64.70 -132.23 52.06 -95.59 0.00 -0.00 -8.09 -41.14 7.14 -6.20 7.12 -0.00 -0.00 -10.30 -20.60 -6.12
